<?xml version="1.0" encoding="utf-8"?>
<!-- Generator: Adobe Illustrator 24.0.2, SVG Export Plug-In . SVG Version: 6.00 Build 0)  -->
<svg version="1.1" id="Capa_1" xmlns="http://www.w3.org/2000/svg" xmlns:xlink="http://www.w3.org/1999/xlink" x="0px" y="0px"
	 viewBox="0 0 477.9 477.9" style="enable-background:new 0 0 477.9 477.9;" xml:space="preserve">
<style type="text/css">
	.st0{fill:#FFF800;}
</style>
<g>
	<g>
		<path class="st0" d="M476.3,183c-3.8-12.9-14.9-22.4-28.3-24.1l-127-17.5L270.8,21.2c-7.3-17.6-27.5-25.9-45.1-18.5
			c-8.4,3.5-15,10.2-18.5,18.5l-50.3,120.1l-127,17.5c-18.9,2.6-32.1,20.1-29.5,39c1.1,8.1,5.1,15.6,11.2,21.1l95.7,85.3L87.6,438.2
			c-2.1,13.6,4.1,27.1,15.8,34.4c11.6,7.4,26.4,7.1,37.7-0.7l97.8-66.5l97.8,66.6c15.8,10.7,37.2,6.6,48-9.2
			c4.9-7.2,6.9-15.9,5.6-24.5l-19.7-134l95.7-85.3C476.4,210,480.4,195.9,476.3,183z"/>
	</g>
</g>
</svg>
